<mxfile host="app.diagrams.net" modified="2021-04-19T08:39:30.846Z" agent="5.0 (X11; Linux x86_64) AppleWebKit/537.36 (KHTML, like Gecko) Chrome/87.0.4280.141 Safari/537.36" etag="jf3VAFlxe7fFH_icrZZ5" version="14.6.1" type="github">
  <diagram id="NLKsVQix0rzjMTLTzG6b" name="Page-1">
    <mxGraphModel dx="2177" dy="1943" grid="1" gridSize="10" guides="1" tooltips="1" connect="1" arrows="1" fold="1" page="1" pageScale="1" pageWidth="827" pageHeight="1169" math="0" shadow="0">
      <root>
        <mxCell id="0" />
        <mxCell id="1" parent="0" />
        <mxCell id="GatCkUBne0LZm9ZgXTt7-9" style="edgeStyle=orthogonalEdgeStyle;rounded=0;orthogonalLoop=1;jettySize=auto;html=1;" edge="1" parent="1" source="GatCkUBne0LZm9ZgXTt7-3" target="GatCkUBne0LZm9ZgXTt7-4">
          <mxGeometry relative="1" as="geometry" />
        </mxCell>
        <mxCell id="GatCkUBne0LZm9ZgXTt7-31" value="" style="edgeStyle=orthogonalEdgeStyle;rounded=0;orthogonalLoop=1;jettySize=auto;html=1;entryX=0.5;entryY=0;entryDx=0;entryDy=0;" edge="1" parent="1" source="GatCkUBne0LZm9ZgXTt7-3" target="GatCkUBne0LZm9ZgXTt7-26">
          <mxGeometry relative="1" as="geometry">
            <mxPoint x="580" y="-230" as="targetPoint" />
          </mxGeometry>
        </mxCell>
        <mxCell id="GatCkUBne0LZm9ZgXTt7-3" value="招采命令下达" style="ellipse;whiteSpace=wrap;html=1;" vertex="1" parent="1">
          <mxGeometry x="330" y="-260" width="120" height="60" as="geometry" />
        </mxCell>
        <mxCell id="GatCkUBne0LZm9ZgXTt7-12" value="" style="edgeStyle=orthogonalEdgeStyle;rounded=0;orthogonalLoop=1;jettySize=auto;html=1;" edge="1" parent="1" source="GatCkUBne0LZm9ZgXTt7-4" target="GatCkUBne0LZm9ZgXTt7-11">
          <mxGeometry relative="1" as="geometry" />
        </mxCell>
        <mxCell id="GatCkUBne0LZm9ZgXTt7-4" value="电气设备招采信号激活" style="rounded=1;whiteSpace=wrap;html=1;" vertex="1" parent="1">
          <mxGeometry x="110" y="-120" width="120" height="40" as="geometry" />
        </mxCell>
        <mxCell id="GatCkUBne0LZm9ZgXTt7-15" value="" style="edgeStyle=orthogonalEdgeStyle;rounded=0;orthogonalLoop=1;jettySize=auto;html=1;" edge="1" parent="1" source="GatCkUBne0LZm9ZgXTt7-11" target="GatCkUBne0LZm9ZgXTt7-14">
          <mxGeometry relative="1" as="geometry" />
        </mxCell>
        <mxCell id="GatCkUBne0LZm9ZgXTt7-11" value="存储采集上来的数据，与正常采集的数据做区分" style="shape=cylinder3;whiteSpace=wrap;html=1;boundedLbl=1;backgroundOutline=1;size=15;" vertex="1" parent="1">
          <mxGeometry x="125" y="85" width="90" height="90" as="geometry" />
        </mxCell>
        <mxCell id="GatCkUBne0LZm9ZgXTt7-23" value="发送，需要确认是否记录招采信息" style="edgeStyle=orthogonalEdgeStyle;rounded=0;orthogonalLoop=1;jettySize=auto;html=1;" edge="1" parent="1" source="GatCkUBne0LZm9ZgXTt7-14" target="GatCkUBne0LZm9ZgXTt7-17">
          <mxGeometry relative="1" as="geometry" />
        </mxCell>
        <mxCell id="GatCkUBne0LZm9ZgXTt7-24" value="发送，需要区分是否为招采" style="edgeStyle=orthogonalEdgeStyle;rounded=0;orthogonalLoop=1;jettySize=auto;html=1;entryX=0.5;entryY=0;entryDx=0;entryDy=0;" edge="1" parent="1" source="GatCkUBne0LZm9ZgXTt7-14" target="GatCkUBne0LZm9ZgXTt7-16">
          <mxGeometry relative="1" as="geometry" />
        </mxCell>
        <mxCell id="GatCkUBne0LZm9ZgXTt7-14" value="采集完成后发送数据，并将招采信号关闭，清空招采数据存储" style="rounded=0;whiteSpace=wrap;html=1;" vertex="1" parent="1">
          <mxGeometry x="110" y="260" width="120" height="60" as="geometry" />
        </mxCell>
        <mxCell id="GatCkUBne0LZm9ZgXTt7-16" value="iot" style="ellipse;whiteSpace=wrap;html=1;" vertex="1" parent="1">
          <mxGeometry x="-50" y="507.5" width="100" height="50" as="geometry" />
        </mxCell>
        <mxCell id="GatCkUBne0LZm9ZgXTt7-17" value="tdengine" style="ellipse;whiteSpace=wrap;html=1;" vertex="1" parent="1">
          <mxGeometry x="300" y="492.5" width="105" height="65" as="geometry" />
        </mxCell>
        <mxCell id="GatCkUBne0LZm9ZgXTt7-32" value="" style="edgeStyle=orthogonalEdgeStyle;rounded=0;orthogonalLoop=1;jettySize=auto;html=1;" edge="1" parent="1" source="GatCkUBne0LZm9ZgXTt7-26" target="GatCkUBne0LZm9ZgXTt7-28">
          <mxGeometry relative="1" as="geometry" />
        </mxCell>
        <mxCell id="GatCkUBne0LZm9ZgXTt7-26" value="传感器采集信号" style="rounded=1;whiteSpace=wrap;html=1;" vertex="1" parent="1">
          <mxGeometry x="520" y="-150" width="120" height="50" as="geometry" />
        </mxCell>
        <mxCell id="GatCkUBne0LZm9ZgXTt7-33" value="是" style="edgeStyle=orthogonalEdgeStyle;rounded=0;orthogonalLoop=1;jettySize=auto;html=1;" edge="1" parent="1" source="GatCkUBne0LZm9ZgXTt7-28" target="GatCkUBne0LZm9ZgXTt7-29">
          <mxGeometry relative="1" as="geometry" />
        </mxCell>
        <mxCell id="GatCkUBne0LZm9ZgXTt7-36" value="否" style="edgeStyle=orthogonalEdgeStyle;rounded=0;orthogonalLoop=1;jettySize=auto;html=1;" edge="1" parent="1" source="GatCkUBne0LZm9ZgXTt7-28" target="GatCkUBne0LZm9ZgXTt7-35">
          <mxGeometry relative="1" as="geometry" />
        </mxCell>
        <mxCell id="GatCkUBne0LZm9ZgXTt7-28" value="是否正在采集" style="rhombus;whiteSpace=wrap;html=1;" vertex="1" parent="1">
          <mxGeometry x="540" y="-40" width="80" height="80" as="geometry" />
        </mxCell>
        <mxCell id="GatCkUBne0LZm9ZgXTt7-38" style="edgeStyle=orthogonalEdgeStyle;rounded=0;orthogonalLoop=1;jettySize=auto;html=1;entryX=1;entryY=0.5;entryDx=0;entryDy=0;entryPerimeter=0;" edge="1" parent="1" source="GatCkUBne0LZm9ZgXTt7-29" target="GatCkUBne0LZm9ZgXTt7-11">
          <mxGeometry relative="1" as="geometry" />
        </mxCell>
        <mxCell id="GatCkUBne0LZm9ZgXTt7-29" value="采集数据发送" style="rounded=0;whiteSpace=wrap;html=1;" vertex="1" parent="1">
          <mxGeometry x="520" y="100" width="120" height="60" as="geometry" />
        </mxCell>
        <mxCell id="GatCkUBne0LZm9ZgXTt7-37" style="edgeStyle=orthogonalEdgeStyle;rounded=0;orthogonalLoop=1;jettySize=auto;html=1;entryX=1;entryY=0.5;entryDx=0;entryDy=0;" edge="1" parent="1" source="GatCkUBne0LZm9ZgXTt7-35" target="GatCkUBne0LZm9ZgXTt7-29">
          <mxGeometry relative="1" as="geometry">
            <Array as="points">
              <mxPoint x="730" y="130" />
            </Array>
          </mxGeometry>
        </mxCell>
        <mxCell id="GatCkUBne0LZm9ZgXTt7-35" value="开始采集" style="whiteSpace=wrap;html=1;aspect=fixed;" vertex="1" parent="1">
          <mxGeometry x="690" y="-40" width="80" height="80" as="geometry" />
        </mxCell>
      </root>
    </mxGraphModel>
  </diagram>
</mxfile>
